<?xml version="1.0" standalone="no"?>
<!DOCTYPE svg PUBLIC "-//W3C//DTD SVG 20010904//EN"
 "http://www.w3.org/TR/2001/REC-SVG-20010904/DTD/svg10.dtd">
<svg version="1.0" xmlns="http://www.w3.org/2000/svg"
 width="500.000000pt" height="500.000000pt" viewBox="0 0 500.000000 500.000000"
 preserveAspectRatio="xMidYMid meet">

<g transform="translate(0.000000,500.000000) scale(0.100000,-0.100000)"
fill="#000000" stroke="none">
<path d="M760 2500 l0 -480 1740 0 1740 0 0 480 0 480 -1740 0 -1740 0 0 -480z
m3420 0 l0 -420 -1685 0 -1685 0 0 420 0 420 1685 0 1685 0 0 -420z"/>
<path d="M850 2500 l0 -390 820 0 820 0 0 390 0 390 -820 0 -820 0 0 -390z
m267 65 l48 -74 48 74 c38 60 52 75 72 75 l25 0 0 -135 0 -135 -25 0 c-25 0
-25 1 -25 93 l0 92 -38 -57 c-25 -39 -44 -58 -57 -58 -13 0 -32 19 -57 58
l-38 57 0 -92 c0 -92 0 -93 -25 -93 l-25 0 0 135 0 135 25 0 c19 0 34 -15 72
-75z m503 40 c59 -57 59 -144 0 -200 -41 -39 -128 -47 -178 -15 -80 50 -80
180 0 230 50 32 137 24 178 -15z m175 -65 c21 -55 38 -100 40 -100 1 0 19 45
40 100 33 88 40 100 61 100 l24 0 -26 -67 c-14 -38 -37 -98 -51 -135 -21 -56
-29 -68 -48 -68 -22 0 -23 2 -122 258 -3 7 4 12 20 12 22 0 28 -10 62 -100z
m275 -35 l0 -135 -25 0 -25 0 0 135 0 135 25 0 25 0 0 -135z m260 120 c0 -12
-14 -15 -65 -15 l-65 0 0 -40 0 -40 60 0 c53 0 60 -2 60 -20 0 -18 -7 -20 -60
-20 l-60 0 0 -45 0 -45 65 0 c51 0 65 -3 65 -15 0 -12 -16 -15 -85 -15 l-85 0
0 135 0 135 85 0 c69 0 85 -3 85 -15z"/>
<path d="M1455 2575 c-19 -18 -25 -35 -25 -70 0 -63 31 -95 93 -95 59 0 92 34
92 95 0 61 -33 95 -92 95 -33 0 -50 -6 -68 -25z"/>
<path d="M2730 2505 l0 -135 35 0 35 0 0 50 0 50 45 0 45 0 0 -50 c0 -49 1
-50 30 -50 l30 0 0 135 0 135 -30 0 c-29 0 -30 -1 -30 -50 l0 -50 -45 0 -45 0
0 50 0 50 -35 0 -35 0 0 -135z"/>
<path d="M3084 2626 c-91 -40 -109 -166 -33 -230 58 -49 139 -43 195 15 25 26
29 38 29 89 0 48 -4 63 -25 85 -47 51 -108 66 -166 41z m106 -76 c43 -43 11
-120 -50 -120 -36 0 -70 34 -70 70 0 60 78 92 120 50z"/>
<path d="M3330 2540 c0 -54 5 -110 11 -124 27 -59 133 -70 180 -20 22 23 24
36 27 135 l4 109 -36 0 -36 0 0 -93 c0 -99 -7 -117 -47 -117 -32 0 -43 33 -43
131 l0 79 -30 0 -30 0 0 -100z"/>
<path d="M3644 2626 c-34 -15 -44 -33 -44 -75 0 -35 24 -57 84 -77 34 -12 46
-21 44 -33 -4 -22 -49 -27 -60 -7 -5 9 -22 16 -38 16 -23 0 -30 -5 -30 -20 0
-73 157 -93 189 -24 25 57 3 93 -74 121 -55 21 -67 46 -22 51 18 2 29 -2 33
-12 8 -22 64 -22 64 0 0 28 -19 52 -51 63 -41 14 -57 13 -95 -3z"/>
<path d="M3850 2505 l0 -135 90 0 90 0 0 30 c0 30 -1 30 -55 30 -52 0 -55 1
-55 25 0 23 4 25 45 25 43 0 45 1 45 30 0 29 -2 30 -45 30 -38 0 -45 3 -45 20
0 17 7 20 50 20 49 0 50 1 50 30 l0 30 -85 0 -85 0 0 -135z"/>
</g>
</svg>
